<svg xmlns="http://www.w3.org/2000/svg" version="1.1" xmlns:xlink="http://www.w3.org/1999/xlink" xmlns:svgjs="http://svgjs.com/svgjs" width="1440" height="600" preserveAspectRatio="none" viewBox="0 0 1440 600"><g mask="url(&quot;#SvgjsMask1012&quot;)" fill="none"><path d="M-42.88 397.52L-42.88 397.52" stroke="rgba(19, 101, 36, 0.36)" stroke-width="1.5"></path><path d="M-42.88 397.52L-63.53 542.07" stroke="rgba(19, 101, 36, 0.36)" stroke-width="1.5"></path><path d="M-42.88 397.52L78.33 498.55" stroke="rgba(19, 101, 36, 0.36)" stroke-width="1.5"></path><path d="M-42.88 397.52L-66.66 671.73" stroke="rgba(19, 101, 36, 0.36)" stroke-width="1.5"></path><path d="M-42.88 397.52L196.68 540.12" stroke="rgba(19, 101, 36, 0.36)" stroke-width="1.5"></path><path d="M-63.53 542.07L-63.53 542.07" stroke="rgba(19, 101, 36, 0.36)" stroke-width="1.5"></path><path d="M-63.53 542.07L-66.66 671.73" stroke="rgba(19, 101, 36, 0.36)" stroke-width="1.5"></path><path d="M-66.66 671.73L-66.66 671.73" stroke="rgba(19, 101, 36, 0.36)" stroke-width="1.5"></path><path d="M-66.66 671.73L74.77 708.09" stroke="rgba(19, 101, 36, 0.36)" stroke-width="1.5"></path><path d="M-66.66 671.73L78.33 498.55" stroke="rgba(19, 101, 36, 0.36)" stroke-width="1.5"></path><path d="M-66.66 671.73L196.68 540.12" stroke="rgba(19, 101, 36, 0.36)" stroke-width="1.5"></path><path d="M78.33 498.55L78.33 498.55" stroke="rgba(19, 101, 36, 0.36)" stroke-width="1.5"></path><path d="M78.33 498.55L196.68 540.12" stroke="rgba(19, 101, 36, 0.36)" stroke-width="1.5"></path><path d="M78.33 498.55L-63.53 542.07" stroke="rgba(19, 101, 36, 0.36)" stroke-width="1.5"></path><path d="M78.33 498.55L248.47 394.27" stroke="rgba(19, 101, 36, 0.36)" stroke-width="1.5"></path><path d="M78.33 498.55L74.77 708.09" stroke="rgba(19, 101, 36, 0.36)" stroke-width="1.5"></path><path d="M74.77 708.09L74.77 708.09" stroke="rgba(19, 101, 36, 0.36)" stroke-width="1.5"></path><path d="M74.77 708.09L250.18 668.44" stroke="rgba(19, 101, 36, 0.36)" stroke-width="1.5"></path><path d="M74.77 708.09L196.68 540.12" stroke="rgba(19, 101, 36, 0.36)" stroke-width="1.5"></path><path d="M248.47 394.27L248.47 394.27" stroke="rgba(19, 101, 36, 0.36)" stroke-width="1.5"></path><path d="M248.47 394.27L384.76 358.04" stroke="rgba(19, 101, 36, 0.36)" stroke-width="1.5"></path><path d="M248.47 394.27L196.68 540.12" stroke="rgba(19, 101, 36, 0.36)" stroke-width="1.5"></path><path d="M196.68 540.12L196.68 540.12" stroke="rgba(19, 101, 36, 0.36)" stroke-width="1.5"></path><path d="M196.68 540.12L250.18 668.44" stroke="rgba(19, 101, 36, 0.36)" stroke-width="1.5"></path><path d="M250.18 668.44L250.18 668.44" stroke="rgba(19, 101, 36, 0.36)" stroke-width="1.5"></path><path d="M250.18 668.44L343.97 679.19" stroke="rgba(19, 101, 36, 0.36)" stroke-width="1.5"></path><path d="M250.18 668.44L78.33 498.55" stroke="rgba(19, 101, 36, 0.36)" stroke-width="1.5"></path><path d="M384.76 358.04L384.76 358.04" stroke="rgba(19, 101, 36, 0.36)" stroke-width="1.5"></path><path d="M384.76 358.04L536.89 501.41" stroke="rgba(19, 101, 36, 0.36)" stroke-width="1.5"></path><path d="M384.76 358.04L196.68 540.12" stroke="rgba(19, 101, 36, 0.36)" stroke-width="1.5"></path><path d="M384.76 358.04L642.65 256.17" stroke="rgba(19, 101, 36, 0.36)" stroke-width="1.5"></path><path d="M384.76 358.04L676.16 375.85" stroke="rgba(19, 101, 36, 0.36)" stroke-width="1.5"></path><path d="M384.76 358.04L343.97 679.19" stroke="rgba(19, 101, 36, 0.36)" stroke-width="1.5"></path><path d="M343.97 679.19L343.97 679.19" stroke="rgba(19, 101, 36, 0.36)" stroke-width="1.5"></path><path d="M343.97 679.19L542.2 650.83" stroke="rgba(19, 101, 36, 0.36)" stroke-width="1.5"></path><path d="M343.97 679.19L196.68 540.12" stroke="rgba(19, 101, 36, 0.36)" stroke-width="1.5"></path><path d="M343.97 679.19L536.89 501.41" stroke="rgba(19, 101, 36, 0.36)" stroke-width="1.5"></path><path d="M343.97 679.19L74.77 708.09" stroke="rgba(19, 101, 36, 0.36)" stroke-width="1.5"></path><path d="M343.97 679.19L248.47 394.27" stroke="rgba(19, 101, 36, 0.36)" stroke-width="1.5"></path><path d="M536.89 501.41L536.89 501.41" stroke="rgba(19, 101, 36, 0.36)" stroke-width="1.5"></path><path d="M536.89 501.41L542.2 650.83" stroke="rgba(19, 101, 36, 0.36)" stroke-width="1.5"></path><path d="M536.89 501.41L676.16 375.85" stroke="rgba(19, 101, 36, 0.36)" stroke-width="1.5"></path><path d="M542.2 650.83L542.2 650.83" stroke="rgba(19, 101, 36, 0.36)" stroke-width="1.5"></path><path d="M642.65 256.17L642.65 256.17" stroke="rgba(19, 101, 36, 0.36)" stroke-width="1.5"></path><path d="M642.65 256.17L676.16 375.85" stroke="rgba(19, 101, 36, 0.36)" stroke-width="1.5"></path><path d="M642.65 256.17L860.69 218.37" stroke="rgba(19, 101, 36, 0.36)" stroke-width="1.5"></path><path d="M642.65 256.17L836.15 363.57" stroke="rgba(19, 101, 36, 0.36)" stroke-width="1.5"></path><path d="M642.65 256.17L536.89 501.41" stroke="rgba(19, 101, 36, 0.36)" stroke-width="1.5"></path><path d="M676.16 375.85L676.16 375.85" stroke="rgba(19, 101, 36, 0.36)" stroke-width="1.5"></path><path d="M676.16 375.85L836.15 363.57" stroke="rgba(19, 101, 36, 0.36)" stroke-width="1.5"></path><path d="M860.69 218.37L860.69 218.37" stroke="rgba(19, 101, 36, 0.36)" stroke-width="1.5"></path><path d="M860.69 218.37L971.23 230.89" stroke="rgba(19, 101, 36, 0.36)" stroke-width="1.5"></path><path d="M860.69 218.37L836.15 363.57" stroke="rgba(19, 101, 36, 0.36)" stroke-width="1.5"></path><path d="M860.69 218.37L952.93 351.76" stroke="rgba(19, 101, 36, 0.36)" stroke-width="1.5"></path><path d="M836.15 363.57L836.15 363.57" stroke="rgba(19, 101, 36, 0.36)" stroke-width="1.5"></path><path d="M836.15 363.57L952.93 351.76" stroke="rgba(19, 101, 36, 0.36)" stroke-width="1.5"></path><path d="M836.15 363.57L861.93 515.06" stroke="rgba(19, 101, 36, 0.36)" stroke-width="1.5"></path><path d="M836.15 363.57L971.23 230.89" stroke="rgba(19, 101, 36, 0.36)" stroke-width="1.5"></path><path d="M861.93 515.06L861.93 515.06" stroke="rgba(19, 101, 36, 0.36)" stroke-width="1.5"></path><path d="M861.93 515.06L969.63 551.47" stroke="rgba(19, 101, 36, 0.36)" stroke-width="1.5"></path><path d="M861.93 515.06L797.84 650.72" stroke="rgba(19, 101, 36, 0.36)" stroke-width="1.5"></path><path d="M861.93 515.06L959.69 656.15" stroke="rgba(19, 101, 36, 0.36)" stroke-width="1.5"></path><path d="M861.93 515.06L952.93 351.76" stroke="rgba(19, 101, 36, 0.36)" stroke-width="1.5"></path><path d="M797.84 650.72L797.84 650.72" stroke="rgba(19, 101, 36, 0.36)" stroke-width="1.5"></path><path d="M797.84 650.72L959.69 656.15" stroke="rgba(19, 101, 36, 0.36)" stroke-width="1.5"></path><path d="M797.84 650.72L969.63 551.47" stroke="rgba(19, 101, 36, 0.36)" stroke-width="1.5"></path><path d="M797.84 650.72L542.2 650.83" stroke="rgba(19, 101, 36, 0.36)" stroke-width="1.5"></path><path d="M1002.41 61.75L1002.41 61.75" stroke="rgba(19, 101, 36, 0.36)" stroke-width="1.5"></path><path d="M1002.41 61.75L1125.99 56.21" stroke="rgba(19, 101, 36, 0.36)" stroke-width="1.5"></path><path d="M1002.41 61.75L1095.42 203.88" stroke="rgba(19, 101, 36, 0.36)" stroke-width="1.5"></path><path d="M1002.41 61.75L971.23 230.89" stroke="rgba(19, 101, 36, 0.36)" stroke-width="1.5"></path><path d="M1002.41 61.75L1151.85 -86.21" stroke="rgba(19, 101, 36, 0.36)" stroke-width="1.5"></path><path d="M1002.41 61.75L860.69 218.37" stroke="rgba(19, 101, 36, 0.36)" stroke-width="1.5"></path><path d="M1002.41 61.75L1254.77 -73.2" stroke="rgba(19, 101, 36, 0.36)" stroke-width="1.5"></path><path d="M971.23 230.89L971.23 230.89" stroke="rgba(19, 101, 36, 0.36)" stroke-width="1.5"></path><path d="M971.23 230.89L952.93 351.76" stroke="rgba(19, 101, 36, 0.36)" stroke-width="1.5"></path><path d="M971.23 230.89L1095.42 203.88" stroke="rgba(19, 101, 36, 0.36)" stroke-width="1.5"></path><path d="M952.93 351.76L952.93 351.76" stroke="rgba(19, 101, 36, 0.36)" stroke-width="1.5"></path><path d="M969.63 551.47L969.63 551.47" stroke="rgba(19, 101, 36, 0.36)" stroke-width="1.5"></path><path d="M969.63 551.47L959.69 656.15" stroke="rgba(19, 101, 36, 0.36)" stroke-width="1.5"></path><path d="M969.63 551.47L1101.63 509.26" stroke="rgba(19, 101, 36, 0.36)" stroke-width="1.5"></path><path d="M959.69 656.15L959.69 656.15" stroke="rgba(19, 101, 36, 0.36)" stroke-width="1.5"></path><path d="M959.69 656.15L1156 656.15" stroke="rgba(19, 101, 36, 0.36)" stroke-width="1.5"></path><path d="M959.69 656.15L1101.63 509.26" stroke="rgba(19, 101, 36, 0.36)" stroke-width="1.5"></path><path d="M1151.85 -86.21L1151.85 -86.21" stroke="rgba(19, 101, 36, 0.36)" stroke-width="1.5"></path><path d="M1151.85 -86.21L1254.77 -73.2" stroke="rgba(19, 101, 36, 0.36)" stroke-width="1.5"></path><path d="M1151.85 -86.21L1125.99 56.21" stroke="rgba(19, 101, 36, 0.36)" stroke-width="1.5"></path><path d="M1151.85 -86.21L1296.08 51.34" stroke="rgba(19, 101, 36, 0.36)" stroke-width="1.5"></path><path d="M1125.99 56.21L1125.99 56.21" stroke="rgba(19, 101, 36, 0.36)" stroke-width="1.5"></path><path d="M1095.42 203.88L1095.42 203.88" stroke="rgba(19, 101, 36, 0.36)" stroke-width="1.5"></path><path d="M1095.42 203.88L1129.65 341.96" stroke="rgba(19, 101, 36, 0.36)" stroke-width="1.5"></path><path d="M1095.42 203.88L1125.99 56.21" stroke="rgba(19, 101, 36, 0.36)" stroke-width="1.5"></path><path d="M1129.65 341.96L1129.65 341.96" stroke="rgba(19, 101, 36, 0.36)" stroke-width="1.5"></path><path d="M1129.65 341.96L1251.06 367.1" stroke="rgba(19, 101, 36, 0.36)" stroke-width="1.5"></path><path d="M1129.65 341.96L1101.63 509.26" stroke="rgba(19, 101, 36, 0.36)" stroke-width="1.5"></path><path d="M1129.65 341.96L952.93 351.76" stroke="rgba(19, 101, 36, 0.36)" stroke-width="1.5"></path><path d="M1129.65 341.96L971.23 230.89" stroke="rgba(19, 101, 36, 0.36)" stroke-width="1.5"></path><path d="M1101.63 509.26L1101.63 509.26" stroke="rgba(19, 101, 36, 0.36)" stroke-width="1.5"></path><path d="M1101.63 509.26L1156 656.15" stroke="rgba(19, 101, 36, 0.36)" stroke-width="1.5"></path><path d="M1101.63 509.26L1251.06 367.1" stroke="rgba(19, 101, 36, 0.36)" stroke-width="1.5"></path><path d="M1101.63 509.26L1307.19 556.14" stroke="rgba(19, 101, 36, 0.36)" stroke-width="1.5"></path><path d="M1156 656.15L1156 656.15" stroke="rgba(19, 101, 36, 0.36)" stroke-width="1.5"></path><path d="M1156 656.15L1238.94 690.34" stroke="rgba(19, 101, 36, 0.36)" stroke-width="1.5"></path><path d="M1254.77 -73.2L1254.77 -73.2" stroke="rgba(19, 101, 36, 0.36)" stroke-width="1.5"></path><path d="M1254.77 -73.2L1296.08 51.34" stroke="rgba(19, 101, 36, 0.36)" stroke-width="1.5"></path><path d="M1254.77 -73.2L1420.02 -77.67" stroke="rgba(19, 101, 36, 0.36)" stroke-width="1.5"></path><path d="M1296.08 51.34L1296.08 51.34" stroke="rgba(19, 101, 36, 0.36)" stroke-width="1.5"></path><path d="M1296.08 51.34L1434 106.61" stroke="rgba(19, 101, 36, 0.36)" stroke-width="1.5"></path><path d="M1296.08 51.34L1125.99 56.21" stroke="rgba(19, 101, 36, 0.36)" stroke-width="1.5"></path><path d="M1296.08 51.34L1420.02 -77.67" stroke="rgba(19, 101, 36, 0.36)" stroke-width="1.5"></path><path d="M1296.08 51.34L1310.13 253.66" stroke="rgba(19, 101, 36, 0.36)" stroke-width="1.5"></path><path d="M1310.13 253.66L1310.13 253.66" stroke="rgba(19, 101, 36, 0.36)" stroke-width="1.5"></path><path d="M1310.13 253.66L1401.88 260.44" stroke="rgba(19, 101, 36, 0.36)" stroke-width="1.5"></path><path d="M1310.13 253.66L1251.06 367.1" stroke="rgba(19, 101, 36, 0.36)" stroke-width="1.5"></path><path d="M1251.06 367.1L1251.06 367.1" stroke="rgba(19, 101, 36, 0.36)" stroke-width="1.5"></path><path d="M1251.06 367.1L1412.21 354.49" stroke="rgba(19, 101, 36, 0.36)" stroke-width="1.5"></path><path d="M1251.06 367.1L1401.88 260.44" stroke="rgba(19, 101, 36, 0.36)" stroke-width="1.5"></path><path d="M1307.19 556.14L1307.19 556.14" stroke="rgba(19, 101, 36, 0.36)" stroke-width="1.5"></path><path d="M1307.19 556.14L1238.94 690.34" stroke="rgba(19, 101, 36, 0.36)" stroke-width="1.5"></path><path d="M1307.19 556.14L1461.11 555.1" stroke="rgba(19, 101, 36, 0.36)" stroke-width="1.5"></path><path d="M1307.19 556.14L1401.64 706.49" stroke="rgba(19, 101, 36, 0.36)" stroke-width="1.5"></path><path d="M1238.94 690.34L1238.94 690.34" stroke="rgba(19, 101, 36, 0.36)" stroke-width="1.5"></path><path d="M1238.94 690.34L1401.64 706.49" stroke="rgba(19, 101, 36, 0.36)" stroke-width="1.5"></path><path d="M1420.02 -77.67L1420.02 -77.67" stroke="rgba(19, 101, 36, 0.36)" stroke-width="1.5"></path><path d="M1420.02 -77.67L1570.03 -98.44" stroke="rgba(19, 101, 36, 0.36)" stroke-width="1.5"></path><path d="M1434 106.61L1434 106.61" stroke="rgba(19, 101, 36, 0.36)" stroke-width="1.5"></path><path d="M1434 106.61L1545.97 69.8" stroke="rgba(19, 101, 36, 0.36)" stroke-width="1.5"></path><path d="M1401.88 260.44L1401.88 260.44" stroke="rgba(19, 101, 36, 0.36)" stroke-width="1.5"></path><path d="M1401.88 260.44L1412.21 354.49" stroke="rgba(19, 101, 36, 0.36)" stroke-width="1.5"></path><path d="M1401.88 260.44L1434 106.61" stroke="rgba(19, 101, 36, 0.36)" stroke-width="1.5"></path><path d="M1401.88 260.44L1582.28 238.05" stroke="rgba(19, 101, 36, 0.36)" stroke-width="1.5"></path><path d="M1401.88 260.44L1579.45 403.04" stroke="rgba(19, 101, 36, 0.36)" stroke-width="1.5"></path><path d="M1412.21 354.49L1412.21 354.49" stroke="rgba(19, 101, 36, 0.36)" stroke-width="1.5"></path><path d="M1412.21 354.49L1310.13 253.66" stroke="rgba(19, 101, 36, 0.36)" stroke-width="1.5"></path><path d="M1461.11 555.1L1461.11 555.1" stroke="rgba(19, 101, 36, 0.36)" stroke-width="1.5"></path><path d="M1461.11 555.1L1570.26 526.93" stroke="rgba(19, 101, 36, 0.36)" stroke-width="1.5"></path><path d="M1401.64 706.49L1401.64 706.49" stroke="rgba(19, 101, 36, 0.36)" stroke-width="1.5"></path><path d="M1401.64 706.49L1461.11 555.1" stroke="rgba(19, 101, 36, 0.36)" stroke-width="1.5"></path><path d="M1401.64 706.49L1573.66 687.94" stroke="rgba(19, 101, 36, 0.36)" stroke-width="1.5"></path><path d="M1570.03 -98.44L1570.03 -98.44" stroke="rgba(19, 101, 36, 0.36)" stroke-width="1.5"></path><path d="M1570.03 -98.44L1545.97 69.8" stroke="rgba(19, 101, 36, 0.36)" stroke-width="1.5"></path><path d="M1570.03 -98.44L1434 106.61" stroke="rgba(19, 101, 36, 0.36)" stroke-width="1.5"></path><path d="M1570.03 -98.44L1296.08 51.34" stroke="rgba(19, 101, 36, 0.36)" stroke-width="1.5"></path><path d="M1570.03 -98.44L1254.77 -73.2" stroke="rgba(19, 101, 36, 0.36)" stroke-width="1.5"></path><path d="M1570.03 -98.44L1582.28 238.05" stroke="rgba(19, 101, 36, 0.36)" stroke-width="1.5"></path><path d="M1545.97 69.8L1545.97 69.8" stroke="rgba(19, 101, 36, 0.36)" stroke-width="1.5"></path><path d="M1582.28 238.05L1582.28 238.05" stroke="rgba(19, 101, 36, 0.36)" stroke-width="1.5"></path><path d="M1582.28 238.05L1579.45 403.04" stroke="rgba(19, 101, 36, 0.36)" stroke-width="1.5"></path><path d="M1582.28 238.05L1545.97 69.8" stroke="rgba(19, 101, 36, 0.36)" stroke-width="1.5"></path><path d="M1582.28 238.05L1434 106.61" stroke="rgba(19, 101, 36, 0.36)" stroke-width="1.5"></path><path d="M1582.28 238.05L1412.21 354.49" stroke="rgba(19, 101, 36, 0.36)" stroke-width="1.5"></path><path d="M1582.28 238.05L1310.13 253.66" stroke="rgba(19, 101, 36, 0.36)" stroke-width="1.5"></path><path d="M1579.45 403.04L1579.45 403.04" stroke="rgba(19, 101, 36, 0.36)" stroke-width="1.5"></path><path d="M1579.45 403.04L1570.26 526.93" stroke="rgba(19, 101, 36, 0.36)" stroke-width="1.5"></path><path d="M1579.45 403.04L1412.21 354.49" stroke="rgba(19, 101, 36, 0.36)" stroke-width="1.5"></path><path d="M1579.45 403.04L1461.11 555.1" stroke="rgba(19, 101, 36, 0.36)" stroke-width="1.5"></path><path d="M1570.26 526.93L1570.26 526.93" stroke="rgba(19, 101, 36, 0.36)" stroke-width="1.5"></path><path d="M1570.26 526.93L1573.66 687.94" stroke="rgba(19, 101, 36, 0.36)" stroke-width="1.5"></path><path d="M1570.26 526.93L1412.21 354.49" stroke="rgba(19, 101, 36, 0.36)" stroke-width="1.5"></path><path d="M1573.66 687.94L1573.66 687.94" stroke="rgba(19, 101, 36, 0.36)" stroke-width="1.5"></path><path d="M1573.66 687.94L1461.11 555.1" stroke="rgba(19, 101, 36, 0.36)" stroke-width="1.5"></path><path d="M1573.66 687.94L1579.45 403.04" stroke="rgba(19, 101, 36, 0.36)" stroke-width="1.5"></path><circle r="5" cx="-42.88" cy="397.52" fill="rgba(19, 101, 36, 0.36)"></circle><circle r="5" cx="-63.53" cy="542.07" fill="rgba(19, 101, 36, 0.36)"></circle><circle r="5" cx="-66.66" cy="671.73" fill="rgba(19, 101, 36, 0.36)"></circle><circle r="5" cx="78.33" cy="498.55" fill="rgba(19, 101, 36, 0.36)"></circle><circle r="5" cx="74.77" cy="708.09" fill="rgba(19, 101, 36, 0.36)"></circle><circle r="5" cx="248.47" cy="394.27" fill="rgba(19, 101, 36, 0.36)"></circle><circle r="5" cx="196.68" cy="540.12" fill="rgba(19, 101, 36, 0.36)"></circle><circle r="5" cx="250.18" cy="668.44" fill="rgba(19, 101, 36, 0.36)"></circle><circle r="5" cx="384.76" cy="358.04" fill="rgba(19, 101, 36, 0.36)"></circle><circle r="5" cx="343.97" cy="679.19" fill="rgba(19, 101, 36, 0.36)"></circle><circle r="5" cx="536.89" cy="501.41" fill="rgba(19, 101, 36, 0.36)"></circle><circle r="5" cx="542.2" cy="650.83" fill="rgba(19, 101, 36, 0.36)"></circle><circle r="5" cx="642.65" cy="256.17" fill="rgba(19, 101, 36, 0.36)"></circle><circle r="5" cx="676.16" cy="375.85" fill="rgba(19, 101, 36, 0.36)"></circle><circle r="5" cx="860.69" cy="218.37" fill="rgba(19, 101, 36, 0.36)"></circle><circle r="5" cx="836.15" cy="363.57" fill="rgba(19, 101, 36, 0.36)"></circle><circle r="5" cx="861.93" cy="515.06" fill="rgba(19, 101, 36, 0.36)"></circle><circle r="5" cx="797.84" cy="650.72" fill="rgba(19, 101, 36, 0.36)"></circle><circle r="5" cx="1002.41" cy="61.75" fill="rgba(19, 101, 36, 0.36)"></circle><circle r="5" cx="971.23" cy="230.89" fill="rgba(19, 101, 36, 0.36)"></circle><circle r="5" cx="952.93" cy="351.76" fill="rgba(19, 101, 36, 0.36)"></circle><circle r="5" cx="969.63" cy="551.47" fill="rgba(19, 101, 36, 0.36)"></circle><circle r="5" cx="959.69" cy="656.15" fill="rgba(19, 101, 36, 0.36)"></circle><circle r="5" cx="1151.85" cy="-86.21" fill="rgba(19, 101, 36, 0.36)"></circle><circle r="5" cx="1125.99" cy="56.21" fill="rgba(19, 101, 36, 0.36)"></circle><circle r="5" cx="1095.42" cy="203.88" fill="rgba(19, 101, 36, 0.36)"></circle><circle r="5" cx="1129.65" cy="341.96" fill="rgba(19, 101, 36, 0.36)"></circle><circle r="5" cx="1101.63" cy="509.26" fill="rgba(19, 101, 36, 0.36)"></circle><circle r="5" cx="1156" cy="656.15" fill="rgba(19, 101, 36, 0.36)"></circle><circle r="5" cx="1254.77" cy="-73.2" fill="rgba(19, 101, 36, 0.36)"></circle><circle r="5" cx="1296.08" cy="51.34" fill="rgba(19, 101, 36, 0.36)"></circle><circle r="5" cx="1310.13" cy="253.66" fill="rgba(19, 101, 36, 0.36)"></circle><circle r="5" cx="1251.06" cy="367.1" fill="rgba(19, 101, 36, 0.36)"></circle><circle r="5" cx="1307.19" cy="556.14" fill="rgba(19, 101, 36, 0.36)"></circle><circle r="5" cx="1238.94" cy="690.34" fill="rgba(19, 101, 36, 0.36)"></circle><circle r="5" cx="1420.02" cy="-77.67" fill="rgba(19, 101, 36, 0.36)"></circle><circle r="5" cx="1434" cy="106.61" fill="rgba(19, 101, 36, 0.36)"></circle><circle r="5" cx="1401.88" cy="260.44" fill="rgba(19, 101, 36, 0.36)"></circle><circle r="5" cx="1412.21" cy="354.49" fill="rgba(19, 101, 36, 0.36)"></circle><circle r="5" cx="1461.11" cy="555.1" fill="rgba(19, 101, 36, 0.36)"></circle><circle r="5" cx="1401.64" cy="706.49" fill="rgba(19, 101, 36, 0.36)"></circle><circle r="5" cx="1570.03" cy="-98.44" fill="rgba(19, 101, 36, 0.36)"></circle><circle r="5" cx="1545.97" cy="69.8" fill="rgba(19, 101, 36, 0.36)"></circle><circle r="5" cx="1582.28" cy="238.05" fill="rgba(19, 101, 36, 0.36)"></circle><circle r="5" cx="1579.45" cy="403.04" fill="rgba(19, 101, 36, 0.36)"></circle><circle r="5" cx="1570.26" cy="526.93" fill="rgba(19, 101, 36, 0.36)"></circle><circle r="5" cx="1573.66" cy="687.94" fill="rgba(19, 101, 36, 0.36)"></circle><path d="M239.08 640.07L239.08 640.07" stroke="hsla(103.5, 98.5%, 33.9%, 0.29)" stroke-width="1.5"></path><path d="M239.08 640.07L230.32 524.23" stroke="hsla(103.5, 98.5%, 33.9%, 0.29)" stroke-width="1.5"></path><path d="M239.08 640.07L390.63 703.25" stroke="hsla(103.5, 98.5%, 33.9%, 0.29)" stroke-width="1.5"></path><path d="M239.08 640.07L365.2 531.37" stroke="hsla(103.5, 98.5%, 33.9%, 0.29)" stroke-width="1.5"></path><path d="M239.08 640.07L40.74 707.5" stroke="hsla(103.5, 98.5%, 33.9%, 0.29)" stroke-width="1.5"></path><path d="M239.08 640.07L40.18 537.65" stroke="hsla(103.5, 98.5%, 33.9%, 0.29)" stroke-width="1.5"></path><path d="M542.28 659.58L542.28 659.58" stroke="hsla(103.5, 98.5%, 33.9%, 0.29)" stroke-width="1.5"></path><path d="M542.28 659.58L657.73 663.01" stroke="hsla(103.5, 98.5%, 33.9%, 0.29)" stroke-width="1.5"></path><path d="M542.28 659.58L541.11 529.39" stroke="hsla(103.5, 98.5%, 33.9%, 0.29)" stroke-width="1.5"></path><path d="M807.99 497.13L807.99 497.13" stroke="hsla(103.5, 98.5%, 33.9%, 0.29)" stroke-width="1.5"></path><path d="M807.99 497.13L646.07 520.12" stroke="hsla(103.5, 98.5%, 33.9%, 0.29)" stroke-width="1.5"></path><path d="M807.99 497.13L969.56 548.7" stroke="hsla(103.5, 98.5%, 33.9%, 0.29)" stroke-width="1.5"></path><path d="M1152.34 -90.13L1152.34 -90.13" stroke="hsla(103.5, 98.5%, 33.9%, 0.29)" stroke-width="1.5"></path><path d="M1152.34 -90.13L1286.1 -54.19" stroke="hsla(103.5, 98.5%, 33.9%, 0.29)" stroke-width="1.5"></path><path d="M1152.34 -90.13L1302.3 81.62" stroke="hsla(103.5, 98.5%, 33.9%, 0.29)" stroke-width="1.5"></path><path d="M1152.34 -90.13L1434.03 -39.3" stroke="hsla(103.5, 98.5%, 33.9%, 0.29)" stroke-width="1.5"></path><path d="M1152.34 -90.13L1410.65 39.46" stroke="hsla(103.5, 98.5%, 33.9%, 0.29)" stroke-width="1.5"></path><path d="M1152.34 -90.13L1133.91 222.73" stroke="hsla(103.5, 98.5%, 33.9%, 0.29)" stroke-width="1.5"></path><path d="M1152.34 -90.13L1296.01 241.1" stroke="hsla(103.5, 98.5%, 33.9%, 0.29)" stroke-width="1.5"></path><path d="M1119.8 654.57L1119.8 654.57" stroke="hsla(103.5, 98.5%, 33.9%, 0.29)" stroke-width="1.5"></path><path d="M1119.8 654.57L1137.57 491.04" stroke="hsla(103.5, 98.5%, 33.9%, 0.29)" stroke-width="1.5"></path><path d="M1119.8 654.57L1290.8 644.22" stroke="hsla(103.5, 98.5%, 33.9%, 0.29)" stroke-width="1.5"></path><path d="M1302.3 81.62L1302.3 81.62" stroke="hsla(103.5, 98.5%, 33.9%, 0.29)" stroke-width="1.5"></path><path d="M1302.3 81.62L1410.65 39.46" stroke="hsla(103.5, 98.5%, 33.9%, 0.29)" stroke-width="1.5"></path><path d="M1302.3 81.62L1286.1 -54.19" stroke="hsla(103.5, 98.5%, 33.9%, 0.29)" stroke-width="1.5"></path><path d="M1302.3 81.62L1296.01 241.1" stroke="hsla(103.5, 98.5%, 33.9%, 0.29)" stroke-width="1.5"></path><path d="M1302.3 81.62L1434.03 -39.3" stroke="hsla(103.5, 98.5%, 33.9%, 0.29)" stroke-width="1.5"></path><path d="M1434.03 -39.3L1434.03 -39.3" stroke="hsla(103.5, 98.5%, 33.9%, 0.29)" stroke-width="1.5"></path><path d="M1434.03 -39.3L1410.65 39.46" stroke="hsla(103.5, 98.5%, 33.9%, 0.29)" stroke-width="1.5"></path><path d="M1434.03 -39.3L1286.1 -54.19" stroke="hsla(103.5, 98.5%, 33.9%, 0.29)" stroke-width="1.5"></path><path d="M1434.03 -39.3L1589.95 -97.18" stroke="hsla(103.5, 98.5%, 33.9%, 0.29)" stroke-width="1.5"></path><path d="M1434.03 -39.3L1570.9 63.61" stroke="hsla(103.5, 98.5%, 33.9%, 0.29)" stroke-width="1.5"></path><path d="M1434.03 -39.3L1432.2 240.34" stroke="hsla(103.5, 98.5%, 33.9%, 0.29)" stroke-width="1.5"></path><path d="M1432.2 240.34L1432.2 240.34" stroke="hsla(103.5, 98.5%, 33.9%, 0.29)" stroke-width="1.5"></path><path d="M1432.2 240.34L1419.96 339.7" stroke="hsla(103.5, 98.5%, 33.9%, 0.29)" stroke-width="1.5"></path><path d="M1432.2 240.34L1296.01 241.1" stroke="hsla(103.5, 98.5%, 33.9%, 0.29)" stroke-width="1.5"></path><path d="M1432.2 240.34L1591.24 200.63" stroke="hsla(103.5, 98.5%, 33.9%, 0.29)" stroke-width="1.5"></path><path d="M-98.75 508.93L-98.75 508.93" stroke="hsla(103.5, 98.5%, 33.9%, 0.29)" stroke-width="1.5"></path><path d="M-98.75 508.93L40.18 537.65" stroke="hsla(103.5, 98.5%, 33.9%, 0.29)" stroke-width="1.5"></path><path d="M-98.75 508.93L-71.83 682.66" stroke="hsla(103.5, 98.5%, 33.9%, 0.29)" stroke-width="1.5"></path><path d="M-98.75 508.93L40.74 707.5" stroke="hsla(103.5, 98.5%, 33.9%, 0.29)" stroke-width="1.5"></path><path d="M-98.75 508.93L230.32 524.23" stroke="hsla(103.5, 98.5%, 33.9%, 0.29)" stroke-width="1.5"></path><path d="M-71.83 682.66L-71.83 682.66" stroke="hsla(103.5, 98.5%, 33.9%, 0.29)" stroke-width="1.5"></path><path d="M-71.83 682.66L40.74 707.5" stroke="hsla(103.5, 98.5%, 33.9%, 0.29)" stroke-width="1.5"></path><path d="M-71.83 682.66L40.18 537.65" stroke="hsla(103.5, 98.5%, 33.9%, 0.29)" stroke-width="1.5"></path><path d="M40.18 537.65L40.18 537.65" stroke="hsla(103.5, 98.5%, 33.9%, 0.29)" stroke-width="1.5"></path><path d="M40.18 537.65L40.74 707.5" stroke="hsla(103.5, 98.5%, 33.9%, 0.29)" stroke-width="1.5"></path><path d="M40.74 707.5L40.74 707.5" stroke="hsla(103.5, 98.5%, 33.9%, 0.29)" stroke-width="1.5"></path><path d="M230.32 524.23L230.32 524.23" stroke="hsla(103.5, 98.5%, 33.9%, 0.29)" stroke-width="1.5"></path><path d="M230.32 524.23L365.2 531.37" stroke="hsla(103.5, 98.5%, 33.9%, 0.29)" stroke-width="1.5"></path><path d="M230.32 524.23L40.18 537.65" stroke="hsla(103.5, 98.5%, 33.9%, 0.29)" stroke-width="1.5"></path><path d="M365.2 531.37L365.2 531.37" stroke="hsla(103.5, 98.5%, 33.9%, 0.29)" stroke-width="1.5"></path><path d="M365.2 531.37L390.63 703.25" stroke="hsla(103.5, 98.5%, 33.9%, 0.29)" stroke-width="1.5"></path><path d="M365.2 531.37L541.11 529.39" stroke="hsla(103.5, 98.5%, 33.9%, 0.29)" stroke-width="1.5"></path><path d="M365.2 531.37L542.28 659.58" stroke="hsla(103.5, 98.5%, 33.9%, 0.29)" stroke-width="1.5"></path><path d="M365.2 531.37L646.07 520.12" stroke="hsla(103.5, 98.5%, 33.9%, 0.29)" stroke-width="1.5"></path><path d="M390.63 703.25L390.63 703.25" stroke="hsla(103.5, 98.5%, 33.9%, 0.29)" stroke-width="1.5"></path><path d="M390.63 703.25L542.28 659.58" stroke="hsla(103.5, 98.5%, 33.9%, 0.29)" stroke-width="1.5"></path><path d="M390.63 703.25L541.11 529.39" stroke="hsla(103.5, 98.5%, 33.9%, 0.29)" stroke-width="1.5"></path><path d="M390.63 703.25L230.32 524.23" stroke="hsla(103.5, 98.5%, 33.9%, 0.29)" stroke-width="1.5"></path><path d="M541.11 529.39L541.11 529.39" stroke="hsla(103.5, 98.5%, 33.9%, 0.29)" stroke-width="1.5"></path><path d="M541.11 529.39L646.07 520.12" stroke="hsla(103.5, 98.5%, 33.9%, 0.29)" stroke-width="1.5"></path><path d="M541.11 529.39L657.73 663.01" stroke="hsla(103.5, 98.5%, 33.9%, 0.29)" stroke-width="1.5"></path><path d="M646.07 520.12L646.07 520.12" stroke="hsla(103.5, 98.5%, 33.9%, 0.29)" stroke-width="1.5"></path><path d="M646.07 520.12L657.73 663.01" stroke="hsla(103.5, 98.5%, 33.9%, 0.29)" stroke-width="1.5"></path><path d="M646.07 520.12L542.28 659.58" stroke="hsla(103.5, 98.5%, 33.9%, 0.29)" stroke-width="1.5"></path><path d="M646.07 520.12L805.64 705.85" stroke="hsla(103.5, 98.5%, 33.9%, 0.29)" stroke-width="1.5"></path><path d="M657.73 663.01L657.73 663.01" stroke="hsla(103.5, 98.5%, 33.9%, 0.29)" stroke-width="1.5"></path><path d="M657.73 663.01L805.64 705.85" stroke="hsla(103.5, 98.5%, 33.9%, 0.29)" stroke-width="1.5"></path><path d="M805.64 705.85L805.64 705.85" stroke="hsla(103.5, 98.5%, 33.9%, 0.29)" stroke-width="1.5"></path><path d="M805.64 705.85L807.99 497.13" stroke="hsla(103.5, 98.5%, 33.9%, 0.29)" stroke-width="1.5"></path><path d="M805.64 705.85L969.56 548.7" stroke="hsla(103.5, 98.5%, 33.9%, 0.29)" stroke-width="1.5"></path><path d="M994.81 243.23L994.81 243.23" stroke="hsla(103.5, 98.5%, 33.9%, 0.29)" stroke-width="1.5"></path><path d="M994.81 243.23L960.62 338.87" stroke="hsla(103.5, 98.5%, 33.9%, 0.29)" stroke-width="1.5"></path><path d="M994.81 243.23L1133.91 222.73" stroke="hsla(103.5, 98.5%, 33.9%, 0.29)" stroke-width="1.5"></path><path d="M994.81 243.23L1108 342.51" stroke="hsla(103.5, 98.5%, 33.9%, 0.29)" stroke-width="1.5"></path><path d="M994.81 243.23L1137.57 491.04" stroke="hsla(103.5, 98.5%, 33.9%, 0.29)" stroke-width="1.5"></path><path d="M994.81 243.23L1296.01 241.1" stroke="hsla(103.5, 98.5%, 33.9%, 0.29)" stroke-width="1.5"></path><path d="M994.81 243.23L969.56 548.7" stroke="hsla(103.5, 98.5%, 33.9%, 0.29)" stroke-width="1.5"></path><path d="M960.62 338.87L960.62 338.87" stroke="hsla(103.5, 98.5%, 33.9%, 0.29)" stroke-width="1.5"></path><path d="M960.62 338.87L1108 342.51" stroke="hsla(103.5, 98.5%, 33.9%, 0.29)" stroke-width="1.5"></path><path d="M960.62 338.87L1133.91 222.73" stroke="hsla(103.5, 98.5%, 33.9%, 0.29)" stroke-width="1.5"></path><path d="M960.62 338.87L969.56 548.7" stroke="hsla(103.5, 98.5%, 33.9%, 0.29)" stroke-width="1.5"></path><path d="M960.62 338.87L807.99 497.13" stroke="hsla(103.5, 98.5%, 33.9%, 0.29)" stroke-width="1.5"></path><path d="M960.62 338.87L1137.57 491.04" stroke="hsla(103.5, 98.5%, 33.9%, 0.29)" stroke-width="1.5"></path><path d="M969.56 548.7L969.56 548.7" stroke="hsla(103.5, 98.5%, 33.9%, 0.29)" stroke-width="1.5"></path><path d="M969.56 548.7L1137.57 491.04" stroke="hsla(103.5, 98.5%, 33.9%, 0.29)" stroke-width="1.5"></path><path d="M969.56 548.7L1119.8 654.57" stroke="hsla(103.5, 98.5%, 33.9%, 0.29)" stroke-width="1.5"></path><path d="M1133.91 222.73L1133.91 222.73" stroke="hsla(103.5, 98.5%, 33.9%, 0.29)" stroke-width="1.5"></path><path d="M1133.91 222.73L1108 342.51" stroke="hsla(103.5, 98.5%, 33.9%, 0.29)" stroke-width="1.5"></path><path d="M1133.91 222.73L1296.01 241.1" stroke="hsla(103.5, 98.5%, 33.9%, 0.29)" stroke-width="1.5"></path><path d="M1133.91 222.73L1307.34 354.31" stroke="hsla(103.5, 98.5%, 33.9%, 0.29)" stroke-width="1.5"></path><path d="M1108 342.51L1108 342.51" stroke="hsla(103.5, 98.5%, 33.9%, 0.29)" stroke-width="1.5"></path><path d="M1137.57 491.04L1137.57 491.04" stroke="hsla(103.5, 98.5%, 33.9%, 0.29)" stroke-width="1.5"></path><path d="M1137.57 491.04L1266.19 543.79" stroke="hsla(103.5, 98.5%, 33.9%, 0.29)" stroke-width="1.5"></path><path d="M1137.57 491.04L1108 342.51" stroke="hsla(103.5, 98.5%, 33.9%, 0.29)" stroke-width="1.5"></path><path d="M1286.1 -54.19L1286.1 -54.19" stroke="hsla(103.5, 98.5%, 33.9%, 0.29)" stroke-width="1.5"></path><path d="M1296.01 241.1L1296.01 241.1" stroke="hsla(103.5, 98.5%, 33.9%, 0.29)" stroke-width="1.5"></path><path d="M1296.01 241.1L1307.34 354.31" stroke="hsla(103.5, 98.5%, 33.9%, 0.29)" stroke-width="1.5"></path><path d="M1307.34 354.31L1307.34 354.31" stroke="hsla(103.5, 98.5%, 33.9%, 0.29)" stroke-width="1.5"></path><path d="M1307.34 354.31L1419.96 339.7" stroke="hsla(103.5, 98.5%, 33.9%, 0.29)" stroke-width="1.5"></path><path d="M1307.34 354.31L1432.2 240.34" stroke="hsla(103.5, 98.5%, 33.9%, 0.29)" stroke-width="1.5"></path><path d="M1307.34 354.31L1266.19 543.79" stroke="hsla(103.5, 98.5%, 33.9%, 0.29)" stroke-width="1.5"></path><path d="M1307.34 354.31L1108 342.51" stroke="hsla(103.5, 98.5%, 33.9%, 0.29)" stroke-width="1.5"></path><path d="M1266.19 543.79L1266.19 543.79" stroke="hsla(103.5, 98.5%, 33.9%, 0.29)" stroke-width="1.5"></path><path d="M1266.19 543.79L1290.8 644.22" stroke="hsla(103.5, 98.5%, 33.9%, 0.29)" stroke-width="1.5"></path><path d="M1266.19 543.79L1447.01 558.69" stroke="hsla(103.5, 98.5%, 33.9%, 0.29)" stroke-width="1.5"></path><path d="M1266.19 543.79L1119.8 654.57" stroke="hsla(103.5, 98.5%, 33.9%, 0.29)" stroke-width="1.5"></path><path d="M1290.8 644.22L1290.8 644.22" stroke="hsla(103.5, 98.5%, 33.9%, 0.29)" stroke-width="1.5"></path><path d="M1410.65 39.46L1410.65 39.46" stroke="hsla(103.5, 98.5%, 33.9%, 0.29)" stroke-width="1.5"></path><path d="M1410.65 39.46L1286.1 -54.19" stroke="hsla(103.5, 98.5%, 33.9%, 0.29)" stroke-width="1.5"></path><path d="M1410.65 39.46L1570.9 63.61" stroke="hsla(103.5, 98.5%, 33.9%, 0.29)" stroke-width="1.5"></path><path d="M1410.65 39.46L1432.2 240.34" stroke="hsla(103.5, 98.5%, 33.9%, 0.29)" stroke-width="1.5"></path><path d="M1410.65 39.46L1589.95 -97.18" stroke="hsla(103.5, 98.5%, 33.9%, 0.29)" stroke-width="1.5"></path><path d="M1419.96 339.7L1419.96 339.7" stroke="hsla(103.5, 98.5%, 33.9%, 0.29)" stroke-width="1.5"></path><path d="M1419.96 339.7L1296.01 241.1" stroke="hsla(103.5, 98.5%, 33.9%, 0.29)" stroke-width="1.5"></path><path d="M1419.96 339.7L1605.99 381.54" stroke="hsla(103.5, 98.5%, 33.9%, 0.29)" stroke-width="1.5"></path><path d="M1419.96 339.7L1591.24 200.63" stroke="hsla(103.5, 98.5%, 33.9%, 0.29)" stroke-width="1.5"></path><path d="M1419.96 339.7L1447.01 558.69" stroke="hsla(103.5, 98.5%, 33.9%, 0.29)" stroke-width="1.5"></path><path d="M1447.01 558.69L1447.01 558.69" stroke="hsla(103.5, 98.5%, 33.9%, 0.29)" stroke-width="1.5"></path><path d="M1447.01 558.69L1439.19 651.41" stroke="hsla(103.5, 98.5%, 33.9%, 0.29)" stroke-width="1.5"></path><path d="M1447.01 558.69L1592.11 524.59" stroke="hsla(103.5, 98.5%, 33.9%, 0.29)" stroke-width="1.5"></path><path d="M1447.01 558.69L1290.8 644.22" stroke="hsla(103.5, 98.5%, 33.9%, 0.29)" stroke-width="1.5"></path><path d="M1439.19 651.41L1439.19 651.41" stroke="hsla(103.5, 98.5%, 33.9%, 0.29)" stroke-width="1.5"></path><path d="M1439.19 651.41L1290.8 644.22" stroke="hsla(103.5, 98.5%, 33.9%, 0.29)" stroke-width="1.5"></path><path d="M1589.95 -97.18L1589.95 -97.18" stroke="hsla(103.5, 98.5%, 33.9%, 0.29)" stroke-width="1.5"></path><path d="M1589.95 -97.18L1570.9 63.61" stroke="hsla(103.5, 98.5%, 33.9%, 0.29)" stroke-width="1.5"></path><path d="M1589.95 -97.18L1591.24 200.63" stroke="hsla(103.5, 98.5%, 33.9%, 0.29)" stroke-width="1.5"></path><path d="M1589.95 -97.18L1286.1 -54.19" stroke="hsla(103.5, 98.5%, 33.9%, 0.29)" stroke-width="1.5"></path><path d="M1570.9 63.61L1570.9 63.61" stroke="hsla(103.5, 98.5%, 33.9%, 0.29)" stroke-width="1.5"></path><path d="M1570.9 63.61L1591.24 200.63" stroke="hsla(103.5, 98.5%, 33.9%, 0.29)" stroke-width="1.5"></path><path d="M1591.24 200.63L1591.24 200.63" stroke="hsla(103.5, 98.5%, 33.9%, 0.29)" stroke-width="1.5"></path><path d="M1591.24 200.63L1605.99 381.54" stroke="hsla(103.5, 98.5%, 33.9%, 0.29)" stroke-width="1.5"></path><path d="M1605.99 381.54L1605.99 381.54" stroke="hsla(103.5, 98.5%, 33.9%, 0.29)" stroke-width="1.5"></path><path d="M1605.99 381.54L1592.11 524.59" stroke="hsla(103.5, 98.5%, 33.9%, 0.29)" stroke-width="1.5"></path><path d="M1605.99 381.54L1432.2 240.34" stroke="hsla(103.5, 98.5%, 33.9%, 0.29)" stroke-width="1.5"></path><path d="M1592.11 524.59L1592.11 524.59" stroke="hsla(103.5, 98.5%, 33.9%, 0.29)" stroke-width="1.5"></path><path d="M1599.65 687.27L1599.65 687.27" stroke="hsla(103.5, 98.5%, 33.9%, 0.29)" stroke-width="1.5"></path><path d="M1599.65 687.27L1592.11 524.59" stroke="hsla(103.5, 98.5%, 33.9%, 0.29)" stroke-width="1.5"></path><path d="M1599.65 687.27L1439.19 651.41" stroke="hsla(103.5, 98.5%, 33.9%, 0.29)" stroke-width="1.5"></path><path d="M1599.65 687.27L1447.01 558.69" stroke="hsla(103.5, 98.5%, 33.9%, 0.29)" stroke-width="1.5"></path><path d="M1599.65 687.27L1605.99 381.54" stroke="hsla(103.5, 98.5%, 33.9%, 0.29)" stroke-width="1.5"></path><circle r="25" cx="239.08" cy="640.07" fill="url(#SvgjsRadialGradient1013)"></circle><circle r="25" cx="542.28" cy="659.58" fill="url(#SvgjsRadialGradient1013)"></circle><circle r="25" cx="807.99" cy="497.13" fill="url(#SvgjsRadialGradient1013)"></circle><circle r="25" cx="1152.34" cy="-90.13" fill="url(#SvgjsRadialGradient1013)"></circle><circle r="25" cx="1119.8" cy="654.57" fill="url(#SvgjsRadialGradient1013)"></circle><circle r="25" cx="1302.3" cy="81.62" fill="url(#SvgjsRadialGradient1013)"></circle><circle r="25" cx="1434.03" cy="-39.3" fill="url(#SvgjsRadialGradient1013)"></circle><circle r="25" cx="1432.2" cy="240.34" fill="url(#SvgjsRadialGradient1013)"></circle><circle r="5" cx="-98.75" cy="508.93" fill="rgba(223, 237, 218, 0.645)"></circle><circle r="5" cx="-71.83" cy="682.66" fill="rgba(223, 237, 218, 0.645)"></circle><circle r="5" cx="40.18" cy="537.65" fill="rgba(223, 237, 218, 0.645)"></circle><circle r="5" cx="40.74" cy="707.5" fill="rgba(223, 237, 218, 0.645)"></circle><circle r="5" cx="230.32" cy="524.23" fill="rgba(223, 237, 218, 0.645)"></circle><circle r="5" cx="365.2" cy="531.37" fill="rgba(223, 237, 218, 0.645)"></circle><circle r="5" cx="390.63" cy="703.25" fill="rgba(223, 237, 218, 0.645)"></circle><circle r="5" cx="541.11" cy="529.39" fill="rgba(223, 237, 218, 0.645)"></circle><circle r="5" cx="646.07" cy="520.12" fill="rgba(223, 237, 218, 0.645)"></circle><circle r="5" cx="657.73" cy="663.01" fill="rgba(223, 237, 218, 0.645)"></circle><circle r="5" cx="805.64" cy="705.85" fill="rgba(223, 237, 218, 0.645)"></circle><circle r="5" cx="994.81" cy="243.23" fill="rgba(223, 237, 218, 0.645)"></circle><circle r="5" cx="960.62" cy="338.87" fill="rgba(223, 237, 218, 0.645)"></circle><circle r="5" cx="969.56" cy="548.7" fill="rgba(223, 237, 218, 0.645)"></circle><circle r="5" cx="1133.91" cy="222.73" fill="rgba(223, 237, 218, 0.645)"></circle><circle r="5" cx="1108" cy="342.51" fill="rgba(223, 237, 218, 0.645)"></circle><circle r="5" cx="1137.57" cy="491.04" fill="rgba(223, 237, 218, 0.645)"></circle><circle r="5" cx="1286.1" cy="-54.19" fill="rgba(223, 237, 218, 0.645)"></circle><circle r="5" cx="1296.01" cy="241.1" fill="rgba(223, 237, 218, 0.645)"></circle><circle r="5" cx="1307.34" cy="354.31" fill="rgba(223, 237, 218, 0.645)"></circle><circle r="5" cx="1266.19" cy="543.79" fill="rgba(223, 237, 218, 0.645)"></circle><circle r="5" cx="1290.8" cy="644.22" fill="rgba(223, 237, 218, 0.645)"></circle><circle r="5" cx="1410.65" cy="39.46" fill="rgba(223, 237, 218, 0.645)"></circle><circle r="5" cx="1419.96" cy="339.7" fill="rgba(223, 237, 218, 0.645)"></circle><circle r="5" cx="1447.01" cy="558.69" fill="rgba(223, 237, 218, 0.645)"></circle><circle r="5" cx="1439.19" cy="651.41" fill="rgba(223, 237, 218, 0.645)"></circle><circle r="5" cx="1589.95" cy="-97.18" fill="rgba(223, 237, 218, 0.645)"></circle><circle r="5" cx="1570.9" cy="63.61" fill="rgba(223, 237, 218, 0.645)"></circle><circle r="5" cx="1591.24" cy="200.63" fill="rgba(223, 237, 218, 0.645)"></circle><circle r="5" cx="1605.99" cy="381.54" fill="rgba(223, 237, 218, 0.645)"></circle><circle r="5" cx="1592.11" cy="524.59" fill="rgba(223, 237, 218, 0.645)"></circle><circle r="5" cx="1599.65" cy="687.27" fill="rgba(223, 237, 218, 0.645)"></circle></g><defs><mask id="SvgjsMask1012"><rect width="1440" height="600" fill="#ffffff"></rect></mask><radialGradient id="SvgjsRadialGradient1013"><stop stop-color="#ffffff" offset="0.1"></stop><stop stop-color="rgba(37, 132, 1, 0.29)" offset="0.2"></stop><stop stop-color="rgba(37, 132, 1, 0)" offset="1"></stop></radialGradient></defs></svg>